<?xml version='1.0' encoding='UTF-8'?>
<svg width="57.4mm" height="57.4mm" version="1.1" xmlns="http://www.w3.org/2000/svg"><rect x="2.8mm" y="2.8mm" width="1.4mm" height="1.4mm"/><rect x="4.2mm" y="2.8mm" width="1.4mm" height="1.4mm"/><rect x="5.6mm" y="2.8mm" width="1.4mm" height="1.4mm"/><rect x="7mm" y="2.8mm" width="1.4mm" height="1.4mm"/><rect x="8.4mm" y="2.8mm" width="1.4mm" height="1.4mm"/><rect x="9.8mm" y="2.8mm" width="1.4mm" height="1.4mm"/><rect x="11.2mm" y="2.8mm" width="1.4mm" height="1.4mm"/><rect x="14mm" y="2.8mm" width="1.4mm" height="1.4mm"/><rect x="16.8mm" y="2.8mm" width="1.4mm" height="1.4mm"/><rect x="19.6mm" y="2.8mm" width="1.4mm" height="1.4mm"/><rect x="21mm" y="2.8mm" width="1.4mm" height="1.4mm"/><rect x="22.4mm" y="2.8mm" width="1.4mm" height="1.4mm"/><rect x="25.2mm" y="2.8mm" width="1.4mm" height="1.4mm"/><rect x="29.4mm" y="2.8mm" width="1.4mm" height="1.4mm"/><rect x="30.8mm" y="2.8mm" width="1.4mm" height="1.4mm"/><rect x="32.2mm" y="2.8mm" width="1.4mm" height="1.4mm"/><rect x="37.8mm" y="2.8mm" width="1.4mm" height="1.4mm"/><rect x="40.6mm" y="2.8mm" width="1.4mm" height="1.4mm"/><rect x="42mm" y="2.8mm" width="1.4mm" height="1.4mm"/><rect x="44.8mm" y="2.8mm" width="1.4mm" height="1.4mm"/><rect x="46.2mm" y="2.8mm" width="1.4mm" height="1.4mm"/><rect x="47.6mm" y="2.8mm" width="1.4mm" height="1.4mm"/><rect x="49mm" y="2.8mm" width="1.4mm" height="1.4mm"/><rect x="50.4mm" y="2.8mm" width="1.4mm" height="1.4mm"/><rect x="51.8mm" y="2.8mm" width="1.4mm" height="1.4mm"/><rect x="53.2mm" y="2.8mm" width="1.4mm" height="1.4mm"/><rect x="2.8mm" y="4.2mm" width="1.4mm" height="1.4mm"/><rect x="11.2mm" y="4.2mm" width="1.4mm" height="1.4mm"/><rect x="18.2mm" y="4.2mm" width="1.4mm" height="1.4mm"/><rect x="22.4mm" y="4.2mm" width="1.4mm" height="1.4mm"/><rect x="25.2mm" y="4.2mm" width="1.4mm" height="1.4mm"/><rect x="26.6mm" y="4.2mm" width="1.4mm" height="1.4mm"/><rect x="28mm" y="4.2mm" width="1.4mm" height="1.4mm"/><rect x="29.4mm" y="4.2mm" width="1.4mm" height="1.4mm"/><rect x="35mm" y="4.2mm" width="1.4mm" height="1.4mm"/><rect x="36.4mm" y="4.2mm" width="1.4mm" height="1.4mm"/><rect x="37.8mm" y="4.2mm" width="1.4mm" height="1.4mm"/><rect x="42mm" y="4.2mm" width="1.4mm" height="1.4mm"/><rect x="44.8mm" y="4.2mm" width="1.4mm" height="1.4mm"/><rect x="53.2mm" y="4.2mm" width="1.4mm" height="1.4mm"/><rect x="2.8mm" y="5.6mm" width="1.4mm" height="1.4mm"/><rect x="5.6mm" y="5.6mm" width="1.4mm" height="1.4mm"/><rect x="7mm" y="5.6mm" width="1.4mm" height="1.4mm"/><rect x="8.4mm" y="5.6mm" width="1.4mm" height="1.4mm"/><rect x="11.2mm" y="5.6mm" width="1.4mm" height="1.4mm"/><rect x="15.4mm" y="5.6mm" width="1.4mm" height="1.4mm"/><rect x="19.6mm" y="5.6mm" width="1.4mm" height="1.4mm"/><rect x="25.2mm" y="5.6mm" width="1.4mm" height="1.4mm"/><rect x="26.6mm" y="5.6mm" width="1.4mm" height="1.4mm"/><rect x="32.2mm" y="5.6mm" width="1.4mm" height="1.4mm"/><rect x="33.6mm" y="5.6mm" width="1.4mm" height="1.4mm"/><rect x="36.4mm" y="5.6mm" width="1.4mm" height="1.4mm"/><rect x="39.2mm" y="5.6mm" width="1.4mm" height="1.4mm"/><rect x="40.6mm" y="5.6mm" width="1.4mm" height="1.4mm"/><rect x="42mm" y="5.6mm" width="1.4mm" height="1.4mm"/><rect x="44.8mm" y="5.6mm" width="1.4mm" height="1.4mm"/><rect x="47.6mm" y="5.6mm" width="1.4mm" height="1.4mm"/><rect x="49mm" y="5.6mm" width="1.4mm" height="1.4mm"/><rect x="50.4mm" y="5.6mm" width="1.4mm" height="1.4mm"/><rect x="53.2mm" y="5.6mm" width="1.4mm" height="1.4mm"/><rect x="2.8mm" y="7mm" width="1.4mm" height="1.4mm"/><rect x="5.6mm" y="7mm" width="1.4mm" height="1.4mm"/><rect x="7mm" y="7mm" width="1.4mm" height="1.4mm"/><rect x="8.4mm" y="7mm" width="1.4mm" height="1.4mm"/><rect x="11.2mm" y="7mm" width="1.4mm" height="1.4mm"/><rect x="14mm" y="7mm" width="1.4mm" height="1.4mm"/><rect x="16.8mm" y="7mm" width="1.4mm" height="1.4mm"/><rect x="18.2mm" y="7mm" width="1.4mm" height="1.4mm"/><rect x="19.6mm" y="7mm" width="1.4mm" height="1.4mm"/><rect x="23.8mm" y="7mm" width="1.4mm" height="1.4mm"/><rect x="28mm" y="7mm" width="1.4mm" height="1.4mm"/><rect x="30.8mm" y="7mm" width="1.4mm" height="1.4mm"/><rect x="37.8mm" y="7mm" width="1.4mm" height="1.4mm"/><rect x="39.2mm" y="7mm" width="1.4mm" height="1.4mm"/><rect x="42mm" y="7mm" width="1.4mm" height="1.4mm"/><rect x="44.8mm" y="7mm" width="1.4mm" height="1.4mm"/><rect x="47.6mm" y="7mm" width="1.4mm" height="1.4mm"/><rect x="49mm" y="7mm" width="1.4mm" height="1.4mm"/><rect x="50.4mm" y="7mm" width="1.4mm" height="1.4mm"/><rect x="53.2mm" y="7mm" width="1.4mm" height="1.4mm"/><rect x="2.8mm" y="8.4mm" width="1.4mm" height="1.4mm"/><rect x="5.6mm" y="8.4mm" width="1.4mm" height="1.4mm"/><rect x="7mm" y="8.4mm" width="1.4mm" height="1.4mm"/><rect x="8.4mm" y="8.4mm" width="1.4mm" height="1.4mm"/><rect x="11.2mm" y="8.4mm" width="1.4mm" height="1.4mm"/><rect x="14mm" y="8.4mm" width="1.4mm" height="1.4mm"/><rect x="15.4mm" y="8.4mm" width="1.4mm" height="1.4mm"/><rect x="16.8mm" y="8.4mm" width="1.4mm" height="1.4mm"/><rect x="19.6mm" y="8.4mm" width="1.4mm" height="1.4mm"/><rect x="22.4mm" y="8.4mm" width="1.4mm" height="1.4mm"/><rect x="23.8mm" y="8.4mm" width="1.4mm" height="1.4mm"/><rect x="26.6mm" y="8.4mm" width="1.4mm" height="1.4mm"/><rect x="28mm" y="8.4mm" width="1.4mm" height="1.4mm"/><rect x="33.6mm" y="8.4mm" width="1.4mm" height="1.4mm"/><rect x="35mm" y="8.4mm" width="1.4mm" height="1.4mm"/><rect x="37.8mm" y="8.4mm" width="1.4mm" height="1.4mm"/><rect x="39.2mm" y="8.4mm" width="1.4mm" height="1.4mm"/><rect x="40.6mm" y="8.4mm" width="1.4mm" height="1.4mm"/><rect x="42mm" y="8.4mm" width="1.4mm" height="1.4mm"/><rect x="44.8mm" y="8.4mm" width="1.4mm" height="1.4mm"/><rect x="47.6mm" y="8.4mm" width="1.4mm" height="1.4mm"/><rect x="49mm" y="8.4mm" width="1.4mm" height="1.4mm"/><rect x="50.4mm" y="8.4mm" width="1.4mm" height="1.4mm"/><rect x="53.2mm" y="8.4mm" width="1.4mm" height="1.4mm"/><rect x="2.8mm" y="9.8mm" width="1.4mm" height="1.4mm"/><rect x="11.2mm" y="9.8mm" width="1.4mm" height="1.4mm"/><rect x="14mm" y="9.8mm" width="1.4mm" height="1.4mm"/><rect x="15.4mm" y="9.8mm" width="1.4mm" height="1.4mm"/><rect x="26.6mm" y="9.8mm" width="1.4mm" height="1.4mm"/><rect x="29.4mm" y="9.8mm" width="1.4mm" height="1.4mm"/><rect x="36.4mm" y="9.8mm" width="1.4mm" height="1.4mm"/><rect x="37.8mm" y="9.8mm" width="1.4mm" height="1.4mm"/><rect x="42mm" y="9.8mm" width="1.4mm" height="1.4mm"/><rect x="44.8mm" y="9.8mm" width="1.4mm" height="1.4mm"/><rect x="53.2mm" y="9.8mm" width="1.4mm" height="1.4mm"/><rect x="2.8mm" y="11.2mm" width="1.4mm" height="1.4mm"/><rect x="4.2mm" y="11.2mm" width="1.4mm" height="1.4mm"/><rect x="5.6mm" y="11.2mm" width="1.4mm" height="1.4mm"/><rect x="7mm" y="11.2mm" width="1.4mm" height="1.4mm"/><rect x="8.4mm" y="11.2mm" width="1.4mm" height="1.4mm"/><rect x="9.8mm" y="11.2mm" width="1.4mm" height="1.4mm"/><rect x="11.2mm" y="11.2mm" width="1.4mm" height="1.4mm"/><rect x="14mm" y="11.2mm" width="1.4mm" height="1.4mm"/><rect x="16.8mm" y="11.2mm" width="1.4mm" height="1.4mm"/><rect x="19.6mm" y="11.2mm" width="1.4mm" height="1.4mm"/><rect x="22.4mm" y="11.2mm" width="1.4mm" height="1.4mm"/><rect x="25.2mm" y="11.2mm" width="1.4mm" height="1.4mm"/><rect x="28mm" y="11.2mm" width="1.4mm" height="1.4mm"/><rect x="30.8mm" y="11.2mm" width="1.4mm" height="1.4mm"/><rect x="33.6mm" y="11.2mm" width="1.4mm" height="1.4mm"/><rect x="36.4mm" y="11.2mm" width="1.4mm" height="1.4mm"/><rect x="39.2mm" y="11.2mm" width="1.4mm" height="1.4mm"/><rect x="42mm" y="11.2mm" width="1.4mm" height="1.4mm"/><rect x="44.8mm" y="11.2mm" width="1.4mm" height="1.4mm"/><rect x="46.2mm" y="11.2mm" width="1.4mm" height="1.4mm"/><rect x="47.6mm" y="11.2mm" width="1.4mm" height="1.4mm"/><rect x="49mm" y="11.2mm" width="1.4mm" height="1.4mm"/><rect x="50.4mm" y="11.2mm" width="1.4mm" height="1.4mm"/><rect x="51.8mm" y="11.2mm" width="1.4mm" height="1.4mm"/><rect x="53.2mm" y="11.2mm" width="1.4mm" height="1.4mm"/><rect x="14mm" y="12.6mm" width="1.4mm" height="1.4mm"/><rect x="18.2mm" y="12.6mm" width="1.4mm" height="1.4mm"/><rect x="19.6mm" y="12.6mm" width="1.4mm" height="1.4mm"/><rect x="21mm" y="12.6mm" width="1.4mm" height="1.4mm"/><rect x="23.8mm" y="12.6mm" width="1.4mm" height="1.4mm"/><rect x="32.2mm" y="12.6mm" width="1.4mm" height="1.4mm"/><rect x="35mm" y="12.6mm" width="1.4mm" height="1.4mm"/><rect x="36.4mm" y="12.6mm" width="1.4mm" height="1.4mm"/><rect x="2.8mm" y="14mm" width="1.4mm" height="1.4mm"/><rect x="8.4mm" y="14mm" width="1.4mm" height="1.4mm"/><rect x="11.2mm" y="14mm" width="1.4mm" height="1.4mm"/><rect x="12.6mm" y="14mm" width="1.4mm" height="1.4mm"/><rect x="14mm" y="14mm" width="1.4mm" height="1.4mm"/><rect x="18.2mm" y="14mm" width="1.4mm" height="1.4mm"/><rect x="19.6mm" y="14mm" width="1.4mm" height="1.4mm"/><rect x="21mm" y="14mm" width="1.4mm" height="1.4mm"/><rect x="22.4mm" y="14mm" width="1.4mm" height="1.4mm"/><rect x="23.8mm" y="14mm" width="1.4mm" height="1.4mm"/><rect x="25.2mm" y="14mm" width="1.4mm" height="1.4mm"/><rect x="29.4mm" y="14mm" width="1.4mm" height="1.4mm"/><rect x="30.8mm" y="14mm" width="1.4mm" height="1.4mm"/><rect x="43.4mm" y="14mm" width="1.4mm" height="1.4mm"/><rect x="44.8mm" y="14mm" width="1.4mm" height="1.4mm"/><rect x="46.2mm" y="14mm" width="1.4mm" height="1.4mm"/><rect x="47.6mm" y="14mm" width="1.4mm" height="1.4mm"/><rect x="49mm" y="14mm" width="1.4mm" height="1.4mm"/><rect x="53.2mm" y="14mm" width="1.4mm" height="1.4mm"/><rect x="2.8mm" y="15.4mm" width="1.4mm" height="1.4mm"/><rect x="4.2mm" y="15.4mm" width="1.4mm" height="1.4mm"/><rect x="5.6mm" y="15.4mm" width="1.4mm" height="1.4mm"/><rect x="7mm" y="15.4mm" width="1.4mm" height="1.4mm"/><rect x="18.2mm" y="15.4mm" width="1.4mm" height="1.4mm"/><rect x="19.6mm" y="15.4mm" width="1.4mm" height="1.4mm"/><rect x="21mm" y="15.4mm" width="1.4mm" height="1.4mm"/><rect x="26.6mm" y="15.4mm" width="1.4mm" height="1.4mm"/><rect x="28mm" y="15.4mm" width="1.4mm" height="1.4mm"/><rect x="29.4mm" y="15.4mm" width="1.4mm" height="1.4mm"/><rect x="33.6mm" y="15.4mm" width="1.4mm" height="1.4mm"/><rect x="36.4mm" y="15.4mm" width="1.4mm" height="1.4mm"/><rect x="39.2mm" y="15.4mm" width="1.4mm" height="1.4mm"/><rect x="40.6mm" y="15.4mm" width="1.4mm" height="1.4mm"/><rect x="42mm" y="15.4mm" width="1.4mm" height="1.4mm"/><rect x="43.4mm" y="15.4mm" width="1.4mm" height="1.4mm"/><rect x="47.6mm" y="15.4mm" width="1.4mm" height="1.4mm"/><rect x="50.4mm" y="15.4mm" width="1.4mm" height="1.4mm"/><rect x="51.8mm" y="15.4mm" width="1.4mm" height="1.4mm"/><rect x="2.8mm" y="16.8mm" width="1.4mm" height="1.4mm"/><rect x="4.2mm" y="16.8mm" width="1.4mm" height="1.4mm"/><rect x="5.6mm" y="16.8mm" width="1.4mm" height="1.4mm"/><rect x="7mm" y="16.8mm" width="1.4mm" height="1.4mm"/><rect x="11.2mm" y="16.8mm" width="1.4mm" height="1.4mm"/><rect x="12.6mm" y="16.8mm" width="1.4mm" height="1.4mm"/><rect x="16.8mm" y="16.8mm" width="1.4mm" height="1.4mm"/><rect x="22.4mm" y="16.8mm" width="1.4mm" height="1.4mm"/><rect x="23.8mm" y="16.8mm" width="1.4mm" height="1.4mm"/><rect x="26.6mm" y="16.8mm" width="1.4mm" height="1.4mm"/><rect x="29.4mm" y="16.8mm" width="1.4mm" height="1.4mm"/><rect x="32.2mm" y="16.8mm" width="1.4mm" height="1.4mm"/><rect x="35mm" y="16.8mm" width="1.4mm" height="1.4mm"/><rect x="36.4mm" y="16.8mm" width="1.4mm" height="1.4mm"/><rect x="39.2mm" y="16.8mm" width="1.4mm" height="1.4mm"/><rect x="40.6mm" y="16.8mm" width="1.4mm" height="1.4mm"/><rect x="44.8mm" y="16.8mm" width="1.4mm" height="1.4mm"/><rect x="46.2mm" y="16.8mm" width="1.4mm" height="1.4mm"/><rect x="47.6mm" y="16.8mm" width="1.4mm" height="1.4mm"/><rect x="49mm" y="16.8mm" width="1.4mm" height="1.4mm"/><rect x="50.4mm" y="16.8mm" width="1.4mm" height="1.4mm"/><rect x="4.2mm" y="18.2mm" width="1.4mm" height="1.4mm"/><rect x="5.6mm" y="18.2mm" width="1.4mm" height="1.4mm"/><rect x="7mm" y="18.2mm" width="1.4mm" height="1.4mm"/><rect x="8.4mm" y="18.2mm" width="1.4mm" height="1.4mm"/><rect x="9.8mm" y="18.2mm" width="1.4mm" height="1.4mm"/><rect x="12.6mm" y="18.2mm" width="1.4mm" height="1.4mm"/><rect x="14mm" y="18.2mm" width="1.4mm" height="1.4mm"/><rect x="15.4mm" y="18.2mm" width="1.4mm" height="1.4mm"/><rect x="18.2mm" y="18.2mm" width="1.4mm" height="1.4mm"/><rect x="19.6mm" y="18.2mm" width="1.4mm" height="1.4mm"/><rect x="21mm" y="18.2mm" width="1.4mm" height="1.4mm"/><rect x="22.4mm" y="18.2mm" width="1.4mm" height="1.4mm"/><rect x="23.8mm" y="18.2mm" width="1.4mm" height="1.4mm"/><rect x="25.2mm" y="18.2mm" width="1.4mm" height="1.4mm"/><rect x="26.6mm" y="18.2mm" width="1.4mm" height="1.4mm"/><rect x="28mm" y="18.2mm" width="1.4mm" height="1.4mm"/><rect x="29.4mm" y="18.2mm" width="1.4mm" height="1.4mm"/><rect x="30.8mm" y="18.2mm" width="1.4mm" height="1.4mm"/><rect x="32.2mm" y="18.2mm" width="1.4mm" height="1.4mm"/><rect x="35mm" y="18.2mm" width="1.4mm" height="1.4mm"/><rect x="46.2mm" y="18.2mm" width="1.4mm" height="1.4mm"/><rect x="47.6mm" y="18.2mm" width="1.4mm" height="1.4mm"/><rect x="50.4mm" y="18.2mm" width="1.4mm" height="1.4mm"/><rect x="51.8mm" y="18.2mm" width="1.4mm" height="1.4mm"/><rect x="2.8mm" y="19.6mm" width="1.4mm" height="1.4mm"/><rect x="5.6mm" y="19.6mm" width="1.4mm" height="1.4mm"/><rect x="11.2mm" y="19.6mm" width="1.4mm" height="1.4mm"/><rect x="14mm" y="19.6mm" width="1.4mm" height="1.4mm"/><rect x="15.4mm" y="19.6mm" width="1.4mm" height="1.4mm"/><rect x="16.8mm" y="19.6mm" width="1.4mm" height="1.4mm"/><rect x="22.4mm" y="19.6mm" width="1.4mm" height="1.4mm"/><rect x="26.6mm" y="19.6mm" width="1.4mm" height="1.4mm"/><rect x="30.8mm" y="19.6mm" width="1.4mm" height="1.4mm"/><rect x="32.2mm" y="19.6mm" width="1.4mm" height="1.4mm"/><rect x="33.6mm" y="19.6mm" width="1.4mm" height="1.4mm"/><rect x="43.4mm" y="19.6mm" width="1.4mm" height="1.4mm"/><rect x="44.8mm" y="19.6mm" width="1.4mm" height="1.4mm"/><rect x="46.2mm" y="19.6mm" width="1.4mm" height="1.4mm"/><rect x="50.4mm" y="19.6mm" width="1.4mm" height="1.4mm"/><rect x="51.8mm" y="19.6mm" width="1.4mm" height="1.4mm"/><rect x="53.2mm" y="19.6mm" width="1.4mm" height="1.4mm"/><rect x="2.8mm" y="21mm" width="1.4mm" height="1.4mm"/><rect x="7mm" y="21mm" width="1.4mm" height="1.4mm"/><rect x="8.4mm" y="21mm" width="1.4mm" height="1.4mm"/><rect x="16.8mm" y="21mm" width="1.4mm" height="1.4mm"/><rect x="19.6mm" y="21mm" width="1.4mm" height="1.4mm"/><rect x="21mm" y="21mm" width="1.4mm" height="1.4mm"/><rect x="23.8mm" y="21mm" width="1.4mm" height="1.4mm"/><rect x="28mm" y="21mm" width="1.4mm" height="1.4mm"/><rect x="32.2mm" y="21mm" width="1.4mm" height="1.4mm"/><rect x="35mm" y="21mm" width="1.4mm" height="1.4mm"/><rect x="39.2mm" y="21mm" width="1.4mm" height="1.4mm"/><rect x="40.6mm" y="21mm" width="1.4mm" height="1.4mm"/><rect x="42mm" y="21mm" width="1.4mm" height="1.4mm"/><rect x="47.6mm" y="21mm" width="1.4mm" height="1.4mm"/><rect x="49mm" y="21mm" width="1.4mm" height="1.4mm"/><rect x="2.8mm" y="22.4mm" width="1.4mm" height="1.4mm"/><rect x="7mm" y="22.4mm" width="1.4mm" height="1.4mm"/><rect x="9.8mm" y="22.4mm" width="1.4mm" height="1.4mm"/><rect x="11.2mm" y="22.4mm" width="1.4mm" height="1.4mm"/><rect x="15.4mm" y="22.4mm" width="1.4mm" height="1.4mm"/><rect x="16.8mm" y="22.4mm" width="1.4mm" height="1.4mm"/><rect x="23.8mm" y="22.4mm" width="1.4mm" height="1.4mm"/><rect x="26.6mm" y="22.4mm" width="1.4mm" height="1.4mm"/><rect x="30.8mm" y="22.4mm" width="1.4mm" height="1.4mm"/><rect x="35mm" y="22.4mm" width="1.4mm" height="1.4mm"/><rect x="36.4mm" y="22.4mm" width="1.4mm" height="1.4mm"/><rect x="40.6mm" y="22.4mm" width="1.4mm" height="1.4mm"/><rect x="42mm" y="22.4mm" width="1.4mm" height="1.4mm"/><rect x="43.4mm" y="22.4mm" width="1.4mm" height="1.4mm"/><rect x="46.2mm" y="22.4mm" width="1.4mm" height="1.4mm"/><rect x="47.6mm" y="22.4mm" width="1.4mm" height="1.4mm"/><rect x="49mm" y="22.4mm" width="1.4mm" height="1.4mm"/><rect x="50.4mm" y="22.4mm" width="1.4mm" height="1.4mm"/><rect x="4.2mm" y="23.8mm" width="1.4mm" height="1.4mm"/><rect x="5.6mm" y="23.8mm" width="1.4mm" height="1.4mm"/><rect x="9.8mm" y="23.8mm" width="1.4mm" height="1.4mm"/><rect x="14mm" y="23.8mm" width="1.4mm" height="1.4mm"/><rect x="15.4mm" y="23.8mm" width="1.4mm" height="1.4mm"/><rect x="18.2mm" y="23.8mm" width="1.4mm" height="1.4mm"/><rect x="21mm" y="23.8mm" width="1.4mm" height="1.4mm"/><rect x="22.4mm" y="23.8mm" width="1.4mm" height="1.4mm"/><rect x="23.8mm" y="23.8mm" width="1.4mm" height="1.4mm"/><rect x="25.2mm" y="23.8mm" width="1.4mm" height="1.4mm"/><rect x="26.6mm" y="23.8mm" width="1.4mm" height="1.4mm"/><rect x="28mm" y="23.8mm" width="1.4mm" height="1.4mm"/><rect x="30.8mm" y="23.8mm" width="1.4mm" height="1.4mm"/><rect x="33.6mm" y="23.8mm" width="1.4mm" height="1.4mm"/><rect x="35mm" y="23.8mm" width="1.4mm" height="1.4mm"/><rect x="43.4mm" y="23.8mm" width="1.4mm" height="1.4mm"/><rect x="44.8mm" y="23.8mm" width="1.4mm" height="1.4mm"/><rect x="46.2mm" y="23.8mm" width="1.4mm" height="1.4mm"/><rect x="47.6mm" y="23.8mm" width="1.4mm" height="1.4mm"/><rect x="50.4mm" y="23.8mm" width="1.4mm" height="1.4mm"/><rect x="51.8mm" y="23.8mm" width="1.4mm" height="1.4mm"/><rect x="2.8mm" y="25.2mm" width="1.4mm" height="1.4mm"/><rect x="7mm" y="25.2mm" width="1.4mm" height="1.4mm"/><rect x="11.2mm" y="25.2mm" width="1.4mm" height="1.4mm"/><rect x="14mm" y="25.2mm" width="1.4mm" height="1.4mm"/><rect x="15.4mm" y="25.2mm" width="1.4mm" height="1.4mm"/><rect x="18.2mm" y="25.2mm" width="1.4mm" height="1.4mm"/><rect x="19.6mm" y="25.2mm" width="1.4mm" height="1.4mm"/><rect x="28mm" y="25.2mm" width="1.4mm" height="1.4mm"/><rect x="33.6mm" y="25.2mm" width="1.4mm" height="1.4mm"/><rect x="35mm" y="25.2mm" width="1.4mm" height="1.4mm"/><rect x="36.4mm" y="25.2mm" width="1.4mm" height="1.4mm"/><rect x="40.6mm" y="25.2mm" width="1.4mm" height="1.4mm"/><rect x="43.4mm" y="25.2mm" width="1.4mm" height="1.4mm"/><rect x="44.8mm" y="25.2mm" width="1.4mm" height="1.4mm"/><rect x="46.2mm" y="25.2mm" width="1.4mm" height="1.4mm"/><rect x="49mm" y="25.2mm" width="1.4mm" height="1.4mm"/><rect x="50.4mm" y="25.2mm" width="1.4mm" height="1.4mm"/><rect x="53.2mm" y="25.2mm" width="1.4mm" height="1.4mm"/><rect x="2.8mm" y="26.6mm" width="1.4mm" height="1.4mm"/><rect x="5.6mm" y="26.6mm" width="1.4mm" height="1.4mm"/><rect x="7mm" y="26.6mm" width="1.4mm" height="1.4mm"/><rect x="8.4mm" y="26.6mm" width="1.4mm" height="1.4mm"/><rect x="9.8mm" y="26.6mm" width="1.4mm" height="1.4mm"/><rect x="15.4mm" y="26.6mm" width="1.4mm" height="1.4mm"/><rect x="16.8mm" y="26.6mm" width="1.4mm" height="1.4mm"/><rect x="18.2mm" y="26.6mm" width="1.4mm" height="1.4mm"/><rect x="21mm" y="26.6mm" width="1.4mm" height="1.4mm"/><rect x="22.4mm" y="26.6mm" width="1.4mm" height="1.4mm"/><rect x="25.2mm" y="26.6mm" width="1.4mm" height="1.4mm"/><rect x="29.4mm" y="26.6mm" width="1.4mm" height="1.4mm"/><rect x="30.8mm" y="26.6mm" width="1.4mm" height="1.4mm"/><rect x="37.8mm" y="26.6mm" width="1.4mm" height="1.4mm"/><rect x="40.6mm" y="26.6mm" width="1.4mm" height="1.4mm"/><rect x="42mm" y="26.6mm" width="1.4mm" height="1.4mm"/><rect x="43.4mm" y="26.6mm" width="1.4mm" height="1.4mm"/><rect x="47.6mm" y="26.6mm" width="1.4mm" height="1.4mm"/><rect x="49mm" y="26.6mm" width="1.4mm" height="1.4mm"/><rect x="50.4mm" y="26.6mm" width="1.4mm" height="1.4mm"/><rect x="51.8mm" y="26.6mm" width="1.4mm" height="1.4mm"/><rect x="2.8mm" y="28mm" width="1.4mm" height="1.4mm"/><rect x="8.4mm" y="28mm" width="1.4mm" height="1.4mm"/><rect x="11.2mm" y="28mm" width="1.4mm" height="1.4mm"/><rect x="14mm" y="28mm" width="1.4mm" height="1.4mm"/><rect x="15.4mm" y="28mm" width="1.4mm" height="1.4mm"/><rect x="18.2mm" y="28mm" width="1.4mm" height="1.4mm"/><rect x="22.4mm" y="28mm" width="1.4mm" height="1.4mm"/><rect x="25.2mm" y="28mm" width="1.4mm" height="1.4mm"/><rect x="26.6mm" y="28mm" width="1.4mm" height="1.4mm"/><rect x="30.8mm" y="28mm" width="1.4mm" height="1.4mm"/><rect x="33.6mm" y="28mm" width="1.4mm" height="1.4mm"/><rect x="40.6mm" y="28mm" width="1.4mm" height="1.4mm"/><rect x="43.4mm" y="28mm" width="1.4mm" height="1.4mm"/><rect x="46.2mm" y="28mm" width="1.4mm" height="1.4mm"/><rect x="47.6mm" y="28mm" width="1.4mm" height="1.4mm"/><rect x="4.2mm" y="29.4mm" width="1.4mm" height="1.4mm"/><rect x="14mm" y="29.4mm" width="1.4mm" height="1.4mm"/><rect x="16.8mm" y="29.4mm" width="1.4mm" height="1.4mm"/><rect x="19.6mm" y="29.4mm" width="1.4mm" height="1.4mm"/><rect x="26.6mm" y="29.4mm" width="1.4mm" height="1.4mm"/><rect x="28mm" y="29.4mm" width="1.4mm" height="1.4mm"/><rect x="32.2mm" y="29.4mm" width="1.4mm" height="1.4mm"/><rect x="33.6mm" y="29.4mm" width="1.4mm" height="1.4mm"/><rect x="36.4mm" y="29.4mm" width="1.4mm" height="1.4mm"/><rect x="39.2mm" y="29.4mm" width="1.4mm" height="1.4mm"/><rect x="40.6mm" y="29.4mm" width="1.4mm" height="1.4mm"/><rect x="50.4mm" y="29.4mm" width="1.4mm" height="1.4mm"/><rect x="51.8mm" y="29.4mm" width="1.4mm" height="1.4mm"/><rect x="2.8mm" y="30.8mm" width="1.4mm" height="1.4mm"/><rect x="4.2mm" y="30.8mm" width="1.4mm" height="1.4mm"/><rect x="5.6mm" y="30.8mm" width="1.4mm" height="1.4mm"/><rect x="8.4mm" y="30.8mm" width="1.4mm" height="1.4mm"/><rect x="9.8mm" y="30.8mm" width="1.4mm" height="1.4mm"/><rect x="11.2mm" y="30.8mm" width="1.4mm" height="1.4mm"/><rect x="12.6mm" y="30.8mm" width="1.4mm" height="1.4mm"/><rect x="14mm" y="30.8mm" width="1.4mm" height="1.4mm"/><rect x="18.2mm" y="30.8mm" width="1.4mm" height="1.4mm"/><rect x="22.4mm" y="30.8mm" width="1.4mm" height="1.4mm"/><rect x="23.8mm" y="30.8mm" width="1.4mm" height="1.4mm"/><rect x="26.6mm" y="30.8mm" width="1.4mm" height="1.4mm"/><rect x="29.4mm" y="30.8mm" width="1.4mm" height="1.4mm"/><rect x="30.8mm" y="30.8mm" width="1.4mm" height="1.4mm"/><rect x="32.2mm" y="30.8mm" width="1.4mm" height="1.4mm"/><rect x="35mm" y="30.8mm" width="1.4mm" height="1.4mm"/><rect x="36.4mm" y="30.8mm" width="1.4mm" height="1.4mm"/><rect x="39.2mm" y="30.8mm" width="1.4mm" height="1.4mm"/><rect x="40.6mm" y="30.8mm" width="1.4mm" height="1.4mm"/><rect x="43.4mm" y="30.8mm" width="1.4mm" height="1.4mm"/><rect x="44.8mm" y="30.8mm" width="1.4mm" height="1.4mm"/><rect x="46.2mm" y="30.8mm" width="1.4mm" height="1.4mm"/><rect x="50.4mm" y="30.8mm" width="1.4mm" height="1.4mm"/><rect x="5.6mm" y="32.2mm" width="1.4mm" height="1.4mm"/><rect x="8.4mm" y="32.2mm" width="1.4mm" height="1.4mm"/><rect x="12.6mm" y="32.2mm" width="1.4mm" height="1.4mm"/><rect x="15.4mm" y="32.2mm" width="1.4mm" height="1.4mm"/><rect x="18.2mm" y="32.2mm" width="1.4mm" height="1.4mm"/><rect x="19.6mm" y="32.2mm" width="1.4mm" height="1.4mm"/><rect x="21mm" y="32.2mm" width="1.4mm" height="1.4mm"/><rect x="22.4mm" y="32.2mm" width="1.4mm" height="1.4mm"/><rect x="23.8mm" y="32.2mm" width="1.4mm" height="1.4mm"/><rect x="25.2mm" y="32.2mm" width="1.4mm" height="1.4mm"/><rect x="26.6mm" y="32.2mm" width="1.4mm" height="1.4mm"/><rect x="28mm" y="32.2mm" width="1.4mm" height="1.4mm"/><rect x="35mm" y="32.2mm" width="1.4mm" height="1.4mm"/><rect x="37.8mm" y="32.2mm" width="1.4mm" height="1.4mm"/><rect x="40.6mm" y="32.2mm" width="1.4mm" height="1.4mm"/><rect x="42mm" y="32.2mm" width="1.4mm" height="1.4mm"/><rect x="43.4mm" y="32.2mm" width="1.4mm" height="1.4mm"/><rect x="46.2mm" y="32.2mm" width="1.4mm" height="1.4mm"/><rect x="47.6mm" y="32.2mm" width="1.4mm" height="1.4mm"/><rect x="51.8mm" y="32.2mm" width="1.4mm" height="1.4mm"/><rect x="53.2mm" y="32.2mm" width="1.4mm" height="1.4mm"/><rect x="4.2mm" y="33.6mm" width="1.4mm" height="1.4mm"/><rect x="5.6mm" y="33.6mm" width="1.4mm" height="1.4mm"/><rect x="11.2mm" y="33.6mm" width="1.4mm" height="1.4mm"/><rect x="14mm" y="33.6mm" width="1.4mm" height="1.4mm"/><rect x="16.8mm" y="33.6mm" width="1.4mm" height="1.4mm"/><rect x="23.8mm" y="33.6mm" width="1.4mm" height="1.4mm"/><rect x="25.2mm" y="33.6mm" width="1.4mm" height="1.4mm"/><rect x="28mm" y="33.6mm" width="1.4mm" height="1.4mm"/><rect x="30.8mm" y="33.6mm" width="1.4mm" height="1.4mm"/><rect x="32.2mm" y="33.6mm" width="1.4mm" height="1.4mm"/><rect x="33.6mm" y="33.6mm" width="1.4mm" height="1.4mm"/><rect x="35mm" y="33.6mm" width="1.4mm" height="1.4mm"/><rect x="36.4mm" y="33.6mm" width="1.4mm" height="1.4mm"/><rect x="39.2mm" y="33.6mm" width="1.4mm" height="1.4mm"/><rect x="40.6mm" y="33.6mm" width="1.4mm" height="1.4mm"/><rect x="46.2mm" y="33.6mm" width="1.4mm" height="1.4mm"/><rect x="47.6mm" y="33.6mm" width="1.4mm" height="1.4mm"/><rect x="49mm" y="33.6mm" width="1.4mm" height="1.4mm"/><rect x="50.4mm" y="33.6mm" width="1.4mm" height="1.4mm"/><rect x="2.8mm" y="35mm" width="1.4mm" height="1.4mm"/><rect x="4.2mm" y="35mm" width="1.4mm" height="1.4mm"/><rect x="8.4mm" y="35mm" width="1.4mm" height="1.4mm"/><rect x="16.8mm" y="35mm" width="1.4mm" height="1.4mm"/><rect x="18.2mm" y="35mm" width="1.4mm" height="1.4mm"/><rect x="23.8mm" y="35mm" width="1.4mm" height="1.4mm"/><rect x="29.4mm" y="35mm" width="1.4mm" height="1.4mm"/><rect x="30.8mm" y="35mm" width="1.4mm" height="1.4mm"/><rect x="32.2mm" y="35mm" width="1.4mm" height="1.4mm"/><rect x="36.4mm" y="35mm" width="1.4mm" height="1.4mm"/><rect x="39.2mm" y="35mm" width="1.4mm" height="1.4mm"/><rect x="40.6mm" y="35mm" width="1.4mm" height="1.4mm"/><rect x="42mm" y="35mm" width="1.4mm" height="1.4mm"/><rect x="43.4mm" y="35mm" width="1.4mm" height="1.4mm"/><rect x="46.2mm" y="35mm" width="1.4mm" height="1.4mm"/><rect x="47.6mm" y="35mm" width="1.4mm" height="1.4mm"/><rect x="50.4mm" y="35mm" width="1.4mm" height="1.4mm"/><rect x="5.6mm" y="36.4mm" width="1.4mm" height="1.4mm"/><rect x="7mm" y="36.4mm" width="1.4mm" height="1.4mm"/><rect x="8.4mm" y="36.4mm" width="1.4mm" height="1.4mm"/><rect x="11.2mm" y="36.4mm" width="1.4mm" height="1.4mm"/><rect x="15.4mm" y="36.4mm" width="1.4mm" height="1.4mm"/><rect x="19.6mm" y="36.4mm" width="1.4mm" height="1.4mm"/><rect x="21mm" y="36.4mm" width="1.4mm" height="1.4mm"/><rect x="23.8mm" y="36.4mm" width="1.4mm" height="1.4mm"/><rect x="25.2mm" y="36.4mm" width="1.4mm" height="1.4mm"/><rect x="30.8mm" y="36.4mm" width="1.4mm" height="1.4mm"/><rect x="36.4mm" y="36.4mm" width="1.4mm" height="1.4mm"/><rect x="43.4mm" y="36.4mm" width="1.4mm" height="1.4mm"/><rect x="44.8mm" y="36.4mm" width="1.4mm" height="1.4mm"/><rect x="49mm" y="36.4mm" width="1.4mm" height="1.4mm"/><rect x="50.4mm" y="36.4mm" width="1.4mm" height="1.4mm"/><rect x="2.8mm" y="37.8mm" width="1.4mm" height="1.4mm"/><rect x="4.2mm" y="37.8mm" width="1.4mm" height="1.4mm"/><rect x="5.6mm" y="37.8mm" width="1.4mm" height="1.4mm"/><rect x="12.6mm" y="37.8mm" width="1.4mm" height="1.4mm"/><rect x="14mm" y="37.8mm" width="1.4mm" height="1.4mm"/><rect x="16.8mm" y="37.8mm" width="1.4mm" height="1.4mm"/><rect x="19.6mm" y="37.8mm" width="1.4mm" height="1.4mm"/><rect x="22.4mm" y="37.8mm" width="1.4mm" height="1.4mm"/><rect x="26.6mm" y="37.8mm" width="1.4mm" height="1.4mm"/><rect x="28mm" y="37.8mm" width="1.4mm" height="1.4mm"/><rect x="29.4mm" y="37.8mm" width="1.4mm" height="1.4mm"/><rect x="32.2mm" y="37.8mm" width="1.4mm" height="1.4mm"/><rect x="33.6mm" y="37.8mm" width="1.4mm" height="1.4mm"/><rect x="36.4mm" y="37.8mm" width="1.4mm" height="1.4mm"/><rect x="39.2mm" y="37.8mm" width="1.4mm" height="1.4mm"/><rect x="40.6mm" y="37.8mm" width="1.4mm" height="1.4mm"/><rect x="47.6mm" y="37.8mm" width="1.4mm" height="1.4mm"/><rect x="49mm" y="37.8mm" width="1.4mm" height="1.4mm"/><rect x="50.4mm" y="37.8mm" width="1.4mm" height="1.4mm"/><rect x="7mm" y="39.2mm" width="1.4mm" height="1.4mm"/><rect x="8.4mm" y="39.2mm" width="1.4mm" height="1.4mm"/><rect x="9.8mm" y="39.2mm" width="1.4mm" height="1.4mm"/><rect x="11.2mm" y="39.2mm" width="1.4mm" height="1.4mm"/><rect x="16.8mm" y="39.2mm" width="1.4mm" height="1.4mm"/><rect x="23.8mm" y="39.2mm" width="1.4mm" height="1.4mm"/><rect x="28mm" y="39.2mm" width="1.4mm" height="1.4mm"/><rect x="29.4mm" y="39.2mm" width="1.4mm" height="1.4mm"/><rect x="35mm" y="39.2mm" width="1.4mm" height="1.4mm"/><rect x="36.4mm" y="39.2mm" width="1.4mm" height="1.4mm"/><rect x="40.6mm" y="39.2mm" width="1.4mm" height="1.4mm"/><rect x="43.4mm" y="39.2mm" width="1.4mm" height="1.4mm"/><rect x="46.2mm" y="39.2mm" width="1.4mm" height="1.4mm"/><rect x="49mm" y="39.2mm" width="1.4mm" height="1.4mm"/><rect x="5.6mm" y="40.6mm" width="1.4mm" height="1.4mm"/><rect x="18.2mm" y="40.6mm" width="1.4mm" height="1.4mm"/><rect x="19.6mm" y="40.6mm" width="1.4mm" height="1.4mm"/><rect x="22.4mm" y="40.6mm" width="1.4mm" height="1.4mm"/><rect x="23.8mm" y="40.6mm" width="1.4mm" height="1.4mm"/><rect x="25.2mm" y="40.6mm" width="1.4mm" height="1.4mm"/><rect x="26.6mm" y="40.6mm" width="1.4mm" height="1.4mm"/><rect x="29.4mm" y="40.6mm" width="1.4mm" height="1.4mm"/><rect x="30.8mm" y="40.6mm" width="1.4mm" height="1.4mm"/><rect x="32.2mm" y="40.6mm" width="1.4mm" height="1.4mm"/><rect x="33.6mm" y="40.6mm" width="1.4mm" height="1.4mm"/><rect x="36.4mm" y="40.6mm" width="1.4mm" height="1.4mm"/><rect x="39.2mm" y="40.6mm" width="1.4mm" height="1.4mm"/><rect x="40.6mm" y="40.6mm" width="1.4mm" height="1.4mm"/><rect x="43.4mm" y="40.6mm" width="1.4mm" height="1.4mm"/><rect x="44.8mm" y="40.6mm" width="1.4mm" height="1.4mm"/><rect x="46.2mm" y="40.6mm" width="1.4mm" height="1.4mm"/><rect x="47.6mm" y="40.6mm" width="1.4mm" height="1.4mm"/><rect x="50.4mm" y="40.6mm" width="1.4mm" height="1.4mm"/><rect x="51.8mm" y="40.6mm" width="1.4mm" height="1.4mm"/><rect x="2.8mm" y="42mm" width="1.4mm" height="1.4mm"/><rect x="4.2mm" y="42mm" width="1.4mm" height="1.4mm"/><rect x="9.8mm" y="42mm" width="1.4mm" height="1.4mm"/><rect x="11.2mm" y="42mm" width="1.4mm" height="1.4mm"/><rect x="14mm" y="42mm" width="1.4mm" height="1.4mm"/><rect x="18.2mm" y="42mm" width="1.4mm" height="1.4mm"/><rect x="21mm" y="42mm" width="1.4mm" height="1.4mm"/><rect x="22.4mm" y="42mm" width="1.4mm" height="1.4mm"/><rect x="26.6mm" y="42mm" width="1.4mm" height="1.4mm"/><rect x="30.8mm" y="42mm" width="1.4mm" height="1.4mm"/><rect x="32.2mm" y="42mm" width="1.4mm" height="1.4mm"/><rect x="33.6mm" y="42mm" width="1.4mm" height="1.4mm"/><rect x="35mm" y="42mm" width="1.4mm" height="1.4mm"/><rect x="36.4mm" y="42mm" width="1.4mm" height="1.4mm"/><rect x="39.2mm" y="42mm" width="1.4mm" height="1.4mm"/><rect x="40.6mm" y="42mm" width="1.4mm" height="1.4mm"/><rect x="42mm" y="42mm" width="1.4mm" height="1.4mm"/><rect x="43.4mm" y="42mm" width="1.4mm" height="1.4mm"/><rect x="44.8mm" y="42mm" width="1.4mm" height="1.4mm"/><rect x="46.2mm" y="42mm" width="1.4mm" height="1.4mm"/><rect x="47.6mm" y="42mm" width="1.4mm" height="1.4mm"/><rect x="50.4mm" y="42mm" width="1.4mm" height="1.4mm"/><rect x="53.2mm" y="42mm" width="1.4mm" height="1.4mm"/><rect x="14mm" y="43.4mm" width="1.4mm" height="1.4mm"/><rect x="15.4mm" y="43.4mm" width="1.4mm" height="1.4mm"/><rect x="16.8mm" y="43.4mm" width="1.4mm" height="1.4mm"/><rect x="21mm" y="43.4mm" width="1.4mm" height="1.4mm"/><rect x="23.8mm" y="43.4mm" width="1.4mm" height="1.4mm"/><rect x="25.2mm" y="43.4mm" width="1.4mm" height="1.4mm"/><rect x="28mm" y="43.4mm" width="1.4mm" height="1.4mm"/><rect x="30.8mm" y="43.4mm" width="1.4mm" height="1.4mm"/><rect x="32.2mm" y="43.4mm" width="1.4mm" height="1.4mm"/><rect x="35mm" y="43.4mm" width="1.4mm" height="1.4mm"/><rect x="37.8mm" y="43.4mm" width="1.4mm" height="1.4mm"/><rect x="42mm" y="43.4mm" width="1.4mm" height="1.4mm"/><rect x="47.6mm" y="43.4mm" width="1.4mm" height="1.4mm"/><rect x="2.8mm" y="44.8mm" width="1.4mm" height="1.4mm"/><rect x="4.2mm" y="44.8mm" width="1.4mm" height="1.4mm"/><rect x="5.6mm" y="44.8mm" width="1.4mm" height="1.4mm"/><rect x="7mm" y="44.8mm" width="1.4mm" height="1.4mm"/><rect x="8.4mm" y="44.8mm" width="1.4mm" height="1.4mm"/><rect x="9.8mm" y="44.8mm" width="1.4mm" height="1.4mm"/><rect x="11.2mm" y="44.8mm" width="1.4mm" height="1.4mm"/><rect x="14mm" y="44.8mm" width="1.4mm" height="1.4mm"/><rect x="21mm" y="44.8mm" width="1.4mm" height="1.4mm"/><rect x="22.4mm" y="44.8mm" width="1.4mm" height="1.4mm"/><rect x="23.8mm" y="44.8mm" width="1.4mm" height="1.4mm"/><rect x="26.6mm" y="44.8mm" width="1.4mm" height="1.4mm"/><rect x="30.8mm" y="44.8mm" width="1.4mm" height="1.4mm"/><rect x="35mm" y="44.8mm" width="1.4mm" height="1.4mm"/><rect x="37.8mm" y="44.8mm" width="1.4mm" height="1.4mm"/><rect x="42mm" y="44.8mm" width="1.4mm" height="1.4mm"/><rect x="44.8mm" y="44.8mm" width="1.4mm" height="1.4mm"/><rect x="47.6mm" y="44.8mm" width="1.4mm" height="1.4mm"/><rect x="2.8mm" y="46.2mm" width="1.4mm" height="1.4mm"/><rect x="11.2mm" y="46.2mm" width="1.4mm" height="1.4mm"/><rect x="15.4mm" y="46.2mm" width="1.4mm" height="1.4mm"/><rect x="16.8mm" y="46.2mm" width="1.4mm" height="1.4mm"/><rect x="21mm" y="46.2mm" width="1.4mm" height="1.4mm"/><rect x="23.8mm" y="46.2mm" width="1.4mm" height="1.4mm"/><rect x="26.6mm" y="46.2mm" width="1.4mm" height="1.4mm"/><rect x="28mm" y="46.2mm" width="1.4mm" height="1.4mm"/><rect x="29.4mm" y="46.2mm" width="1.4mm" height="1.4mm"/><rect x="30.8mm" y="46.2mm" width="1.4mm" height="1.4mm"/><rect x="33.6mm" y="46.2mm" width="1.4mm" height="1.4mm"/><rect x="36.4mm" y="46.2mm" width="1.4mm" height="1.4mm"/><rect x="42mm" y="46.2mm" width="1.4mm" height="1.4mm"/><rect x="47.6mm" y="46.2mm" width="1.4mm" height="1.4mm"/><rect x="49mm" y="46.2mm" width="1.4mm" height="1.4mm"/><rect x="50.4mm" y="46.2mm" width="1.4mm" height="1.4mm"/><rect x="2.8mm" y="47.6mm" width="1.4mm" height="1.4mm"/><rect x="5.6mm" y="47.6mm" width="1.4mm" height="1.4mm"/><rect x="7mm" y="47.6mm" width="1.4mm" height="1.4mm"/><rect x="8.4mm" y="47.6mm" width="1.4mm" height="1.4mm"/><rect x="11.2mm" y="47.6mm" width="1.4mm" height="1.4mm"/><rect x="14mm" y="47.6mm" width="1.4mm" height="1.4mm"/><rect x="15.4mm" y="47.6mm" width="1.4mm" height="1.4mm"/><rect x="19.6mm" y="47.6mm" width="1.4mm" height="1.4mm"/><rect x="21mm" y="47.6mm" width="1.4mm" height="1.4mm"/><rect x="28mm" y="47.6mm" width="1.4mm" height="1.4mm"/><rect x="33.6mm" y="47.6mm" width="1.4mm" height="1.4mm"/><rect x="35mm" y="47.6mm" width="1.4mm" height="1.4mm"/><rect x="36.4mm" y="47.6mm" width="1.4mm" height="1.4mm"/><rect x="39.2mm" y="47.6mm" width="1.4mm" height="1.4mm"/><rect x="42mm" y="47.6mm" width="1.4mm" height="1.4mm"/><rect x="43.4mm" y="47.6mm" width="1.4mm" height="1.4mm"/><rect x="44.8mm" y="47.6mm" width="1.4mm" height="1.4mm"/><rect x="46.2mm" y="47.6mm" width="1.4mm" height="1.4mm"/><rect x="47.6mm" y="47.6mm" width="1.4mm" height="1.4mm"/><rect x="49mm" y="47.6mm" width="1.4mm" height="1.4mm"/><rect x="50.4mm" y="47.6mm" width="1.4mm" height="1.4mm"/><rect x="51.8mm" y="47.6mm" width="1.4mm" height="1.4mm"/><rect x="2.8mm" y="49mm" width="1.4mm" height="1.4mm"/><rect x="5.6mm" y="49mm" width="1.4mm" height="1.4mm"/><rect x="7mm" y="49mm" width="1.4mm" height="1.4mm"/><rect x="8.4mm" y="49mm" width="1.4mm" height="1.4mm"/><rect x="11.2mm" y="49mm" width="1.4mm" height="1.4mm"/><rect x="18.2mm" y="49mm" width="1.4mm" height="1.4mm"/><rect x="19.6mm" y="49mm" width="1.4mm" height="1.4mm"/><rect x="21mm" y="49mm" width="1.4mm" height="1.4mm"/><rect x="25.2mm" y="49mm" width="1.4mm" height="1.4mm"/><rect x="29.4mm" y="49mm" width="1.4mm" height="1.4mm"/><rect x="30.8mm" y="49mm" width="1.4mm" height="1.4mm"/><rect x="32.2mm" y="49mm" width="1.4mm" height="1.4mm"/><rect x="35mm" y="49mm" width="1.4mm" height="1.4mm"/><rect x="36.4mm" y="49mm" width="1.4mm" height="1.4mm"/><rect x="39.2mm" y="49mm" width="1.4mm" height="1.4mm"/><rect x="40.6mm" y="49mm" width="1.4mm" height="1.4mm"/><rect x="43.4mm" y="49mm" width="1.4mm" height="1.4mm"/><rect x="44.8mm" y="49mm" width="1.4mm" height="1.4mm"/><rect x="46.2mm" y="49mm" width="1.4mm" height="1.4mm"/><rect x="49mm" y="49mm" width="1.4mm" height="1.4mm"/><rect x="53.2mm" y="49mm" width="1.4mm" height="1.4mm"/><rect x="2.8mm" y="50.4mm" width="1.4mm" height="1.4mm"/><rect x="5.6mm" y="50.4mm" width="1.4mm" height="1.4mm"/><rect x="7mm" y="50.4mm" width="1.4mm" height="1.4mm"/><rect x="8.4mm" y="50.4mm" width="1.4mm" height="1.4mm"/><rect x="11.2mm" y="50.4mm" width="1.4mm" height="1.4mm"/><rect x="16.8mm" y="50.4mm" width="1.4mm" height="1.4mm"/><rect x="18.2mm" y="50.4mm" width="1.4mm" height="1.4mm"/><rect x="19.6mm" y="50.4mm" width="1.4mm" height="1.4mm"/><rect x="21mm" y="50.4mm" width="1.4mm" height="1.4mm"/><rect x="22.4mm" y="50.4mm" width="1.4mm" height="1.4mm"/><rect x="25.2mm" y="50.4mm" width="1.4mm" height="1.4mm"/><rect x="28mm" y="50.4mm" width="1.4mm" height="1.4mm"/><rect x="30.8mm" y="50.4mm" width="1.4mm" height="1.4mm"/><rect x="32.2mm" y="50.4mm" width="1.4mm" height="1.4mm"/><rect x="33.6mm" y="50.4mm" width="1.4mm" height="1.4mm"/><rect x="35mm" y="50.4mm" width="1.4mm" height="1.4mm"/><rect x="36.4mm" y="50.4mm" width="1.4mm" height="1.4mm"/><rect x="40.6mm" y="50.4mm" width="1.4mm" height="1.4mm"/><rect x="43.4mm" y="50.4mm" width="1.4mm" height="1.4mm"/><rect x="44.8mm" y="50.4mm" width="1.4mm" height="1.4mm"/><rect x="50.4mm" y="50.4mm" width="1.4mm" height="1.4mm"/><rect x="2.8mm" y="51.8mm" width="1.4mm" height="1.4mm"/><rect x="11.2mm" y="51.8mm" width="1.4mm" height="1.4mm"/><rect x="16.8mm" y="51.8mm" width="1.4mm" height="1.4mm"/><rect x="18.2mm" y="51.8mm" width="1.4mm" height="1.4mm"/><rect x="22.4mm" y="51.8mm" width="1.4mm" height="1.4mm"/><rect x="26.6mm" y="51.8mm" width="1.4mm" height="1.4mm"/><rect x="28mm" y="51.8mm" width="1.4mm" height="1.4mm"/><rect x="32.2mm" y="51.8mm" width="1.4mm" height="1.4mm"/><rect x="35mm" y="51.8mm" width="1.4mm" height="1.4mm"/><rect x="36.4mm" y="51.8mm" width="1.4mm" height="1.4mm"/><rect x="39.2mm" y="51.8mm" width="1.4mm" height="1.4mm"/><rect x="40.6mm" y="51.8mm" width="1.4mm" height="1.4mm"/><rect x="47.6mm" y="51.8mm" width="1.4mm" height="1.4mm"/><rect x="49mm" y="51.8mm" width="1.4mm" height="1.4mm"/><rect x="50.4mm" y="51.8mm" width="1.4mm" height="1.4mm"/><rect x="51.8mm" y="51.8mm" width="1.4mm" height="1.4mm"/><rect x="2.8mm" y="53.2mm" width="1.4mm" height="1.4mm"/><rect x="4.2mm" y="53.2mm" width="1.4mm" height="1.4mm"/><rect x="5.6mm" y="53.2mm" width="1.4mm" height="1.4mm"/><rect x="7mm" y="53.2mm" width="1.4mm" height="1.4mm"/><rect x="8.4mm" y="53.2mm" width="1.4mm" height="1.4mm"/><rect x="9.8mm" y="53.2mm" width="1.4mm" height="1.4mm"/><rect x="11.2mm" y="53.2mm" width="1.4mm" height="1.4mm"/><rect x="14mm" y="53.2mm" width="1.4mm" height="1.4mm"/><rect x="18.2mm" y="53.2mm" width="1.4mm" height="1.4mm"/><rect x="22.4mm" y="53.2mm" width="1.4mm" height="1.4mm"/><rect x="23.8mm" y="53.2mm" width="1.4mm" height="1.4mm"/><rect x="26.6mm" y="53.2mm" width="1.4mm" height="1.4mm"/><rect x="29.4mm" y="53.2mm" width="1.4mm" height="1.4mm"/><rect x="30.8mm" y="53.2mm" width="1.4mm" height="1.4mm"/><rect x="32.2mm" y="53.2mm" width="1.4mm" height="1.4mm"/><rect x="33.6mm" y="53.2mm" width="1.4mm" height="1.4mm"/><rect x="35mm" y="53.2mm" width="1.4mm" height="1.4mm"/><rect x="36.4mm" y="53.2mm" width="1.4mm" height="1.4mm"/><rect x="39.2mm" y="53.2mm" width="1.4mm" height="1.4mm"/><rect x="43.4mm" y="53.2mm" width="1.4mm" height="1.4mm"/><rect x="44.8mm" y="53.2mm" width="1.4mm" height="1.4mm"/><rect x="46.2mm" y="53.2mm" width="1.4mm" height="1.4mm"/><rect x="50.4mm" y="53.2mm" width="1.4mm" height="1.4mm"/><rect x="51.8mm" y="53.2mm" width="1.4mm" height="1.4mm"/><rect x="53.2mm" y="53.2mm" width="1.4mm" height="1.4mm"/></svg>